USFL
nRows=111
nColumns=2
inDegrees=yes
endheader
time	med_gas_r	
3	 48.762251	
3.0625	 48.818898	
3.125	 48.806103	
3.1875	 48.807485	
3.25	 48.773876	
3.3125	 48.825362	
3.375	 48.811058	
3.4375	 48.947415	
3.5	 48.920172	
3.5625	 48.835834	
3.625	 48.694592	
3.6875	 48.861365	
3.75	 48.834649	
3.8125	 48.820778	
3.875	 48.817910	
3.9375	 48.904590	
4	 48.914254	
4.0625	 48.886254	
4.125	 48.902563	
4.1875	 48.896806	
4.25	 48.652367	
4.3125	 48.801072	
4.375	 48.705284	
4.4375	 48.732440	
4.5	 48.824158	
4.5625	 48.928764	
4.625	 48.811796	
4.6875	 49.017976	
4.75	 48.593523	
4.8125	 48.045412	
4.875	 48.486375	
4.9375	 48.821610	
5	 48.344189	
5.0625	 43.109342	
5.125	 42.986261	
5.1875	 42.418507	
5.25	 39.728966	
5.3125	 39.843338	
5.375	 39.916337	
5.4375	 39.690948	
5.5	 39.139199	
5.5625	 38.587159	
5.625	 37.211312	
5.6875	 36.025820	
5.75	 35.566377	
5.8125	 35.399641	
5.875	 34.922514	
5.9375	 34.635961	
6	 34.404731	
6.0625	 33.926141	
6.125	 33.419938	
6.1875	 32.985172	
6.25	 33.450467	
6.3125	 33.258623	
6.375	 33.411641	
6.4375	 33.365192	
6.5	 33.295172	
6.5625	 33.237334	
6.625	 32.922098	
6.6875	 32.848359	
6.75	 32.943382	
6.8125	 33.165889	
6.875	 32.471700	
6.9375	 31.809590	
7	 31.603642	
7.0625	 31.661439	
7.125	 31.334165	
7.1875	 31.276377	
7.25	 31.455433	
7.3125	 31.510142	
7.375	 31.458702	
7.4375	 31.491090	
7.5	 31.530063	
7.5625	 31.358024	
7.625	 31.120664	
7.6875	 31.165235	
7.75	 31.099458	
7.8125	 31.331960	
7.875	 31.683224	
7.9375	 31.287637	
8	 31.549773	
8.0625	 31.715413	
8.125	 31.592101	
8.1875	 31.459203	
8.25	 31.618193	
8.3125	 31.611609	
8.375	 31.723004	
8.4375	 31.663207	
8.5	 31.389809	
8.5625	 31.246356	
8.625	 31.577927	
8.6875	 31.512873	
8.75	 31.663231	
8.8125	 31.698693	
8.875	 31.650118	
8.9375	 31.644039	
9	 32.100510	
9.0625	 33.403159	
9.125	 34.578561	
9.1875	 36.072596	
9.25	 36.464095	
9.3125	 36.950884	
9.375	 40.460900	
9.4375	 41.166639	
9.5	 41.400397	
9.5625	 41.695259	
9.625	 42.046686	
9.6875	 45.758577	
9.75	 49.895994	
9.8125	 49.629899	
9.875	 49.865484	
